<svg width="19" height="19" viewBox="0 0 19 19" fill="none" xmlns="http://www.w3.org/2000/svg">
<path d="M11.0837 1.58332H4.75032C4.3304 1.58332 3.92767 1.75014 3.63074 2.04707C3.33381 2.344 3.16699 2.74673 3.16699 3.16666V15.8333C3.16699 16.2532 3.33381 16.656 3.63074 16.9529C3.92767 17.2498 4.3304 17.4167 4.75032 17.4167H14.2503C14.6702 17.4167 15.073 17.2498 15.3699 16.9529C15.6668 16.656 15.8337 16.2532 15.8337 15.8333V6.33332L11.0837 1.58332Z" stroke="#1F1F1F" stroke-width="1.54061" stroke-linecap="round" stroke-linejoin="round"/>
<path d="M11.0837 1.58332V6.33332H15.8337" stroke="#1F1F1F" stroke-width="1.54061" stroke-linecap="round" stroke-linejoin="round"/>
<path d="M12.6673 10.2917H6.33398" stroke="#1F1F1F" stroke-width="1.54061" stroke-linecap="round" stroke-linejoin="round"/>
<path d="M12.6673 13.4583H6.33398" stroke="#1F1F1F" stroke-width="1.54061" stroke-linecap="round" stroke-linejoin="round"/>
<path d="M7.91731 7.12498H7.12565H6.33398" stroke="#1F1F1F" stroke-width="1.54061" stroke-linecap="round" stroke-linejoin="round"/>
</svg>
