<svg width="19" height="19" viewBox="0 0 19 19" fill="none" xmlns="http://www.w3.org/2000/svg">
<path d="M9.49826 10.2917C9.93548 10.2917 10.2899 9.93721 10.2899 9.49999C10.2899 9.06276 9.93548 8.70832 9.49826 8.70832C9.06103 8.70832 8.70659 9.06276 8.70659 9.49999C8.70659 9.93721 9.06103 10.2917 9.49826 10.2917Z" stroke="#1F1F1F" stroke-width="1.54061" stroke-linecap="round" stroke-linejoin="round"/>
<path d="M9.49826 4.74999C9.93548 4.74999 10.2899 4.39555 10.2899 3.95832C10.2899 3.52109 9.93548 3.16665 9.49826 3.16665C9.06103 3.16665 8.70659 3.52109 8.70659 3.95832C8.70659 4.39555 9.06103 4.74999 9.49826 4.74999Z" stroke="#1F1F1F" stroke-width="1.54061" stroke-linecap="round" stroke-linejoin="round"/>
<path d="M9.49826 15.8333C9.93548 15.8333 10.2899 15.4789 10.2899 15.0417C10.2899 14.6044 9.93548 14.25 9.49826 14.25C9.06103 14.25 8.70659 14.6044 8.70659 15.0417C8.70659 15.4789 9.06103 15.8333 9.49826 15.8333Z" stroke="#1F1F1F" stroke-width="1.54061" stroke-linecap="round" stroke-linejoin="round"/>
</svg>
