<svg width="19" height="19" viewBox="0 0 19 19" fill="none" xmlns="http://www.w3.org/2000/svg">
<g clip-path="url(#clip0_2904_181)">
<path d="M13.458 16.625V15.0417C13.458 14.2018 13.1244 13.3963 12.5305 12.8025C11.9367 12.2086 11.1312 11.875 10.2914 11.875H3.95804C3.11819 11.875 2.31273 12.2086 1.71887 12.8025C1.125 13.3963 0.791371 14.2018 0.791371 15.0417V16.625" stroke="#1F1F1F" stroke-width="1.54061" stroke-linecap="round" stroke-linejoin="round"/>
<path d="M7.12453 8.70832C8.87343 8.70832 10.2912 7.29055 10.2912 5.54165C10.2912 3.79275 8.87343 2.37498 7.12453 2.37498C5.37562 2.37498 3.95786 3.79275 3.95786 5.54165C3.95786 7.29055 5.37562 8.70832 7.12453 8.70832Z" stroke="#1F1F1F" stroke-width="1.54061" stroke-linecap="round" stroke-linejoin="round"/>
<path d="M18.2079 16.625V15.0417C18.2074 14.34 17.9739 13.6584 17.544 13.1039C17.1142 12.5494 16.5123 12.1533 15.8329 11.9779" stroke="#1F1F1F" stroke-width="1.54061" stroke-linecap="round" stroke-linejoin="round"/>
<path d="M12.6665 2.4779C13.3476 2.65231 13.9514 3.04846 14.3825 3.6039C14.8136 4.15934 15.0477 4.84248 15.0477 5.54561C15.0477 6.24875 14.8136 6.93188 14.3825 7.48733C13.9514 8.04277 13.3476 8.43892 12.6665 8.61332" stroke="#1F1F1F" stroke-width="1.54061" stroke-linecap="round" stroke-linejoin="round"/>
</g>
<defs>
<clipPath id="clip0_2904_181">
<rect width="18.4874" height="18.4874" fill="white" transform="scale(1.02773)"/>
</clipPath>
</defs>
</svg>
